<svg width="115" height="39" viewBox="0 0 115 39" fill="none" xmlns="http://www.w3.org/2000/svg">
  <path
    d="M24.2624 29.4443C17.3624 29.4443 10.3624 29.4443 3.46242 29.4443C1.66242 29.4443 0.362418 28.3443 0.0624176 26.5443C-0.237582 24.8443 0.562418 23.0443 2.06242 22.4443C2.36242 22.3443 2.76242 22.2443 3.16242 22.2443C3.86242 22.2443 4.56242 22.2443 5.26242 22.2443C14.6624 22.2443 24.0624 22.2443 33.4624 22.2443C36.8624 22.2443 40.1624 22.2443 43.5624 22.2443C44.5624 22.2443 45.4624 21.4443 45.4624 20.4443C45.4624 19.3443 44.6624 18.5443 43.5624 18.5443C40.6624 18.5443 37.6624 18.5443 34.7624 18.5443C30.3624 18.5443 26.5624 15.3443 25.9624 11.0443C25.1624 5.54434 28.7624 1.94434 32.4624 0.844336C33.3624 0.544336 34.2624 0.444336 35.1624 0.444336C46.2624 0.444336 57.3624 0.444336 68.4624 0.444336C72.5624 0.444336 76.1624 1.84434 79.1624 4.54434C81.3624 6.44434 82.7624 8.84434 83.5624 11.5443C84.3624 14.5443 84.0624 17.5443 82.8624 20.4443C81.4624 23.6443 79.1624 26.0443 76.0624 27.6443C73.4624 29.0443 70.7624 29.6443 67.8624 29.6443C64.7624 29.6443 61.6624 29.6443 58.5624 29.6443C57.3624 29.6443 56.6624 29.0443 56.6624 27.7443C56.6624 22.8443 56.6624 18.0443 56.6624 13.1443C56.6624 12.0443 57.3624 11.2443 58.4624 11.3443C59.9624 11.4443 61.3624 11.3443 62.8624 11.3443C63.9624 11.3443 64.5624 12.0443 64.5624 13.1443C64.5624 15.9443 64.5624 18.6443 64.5624 21.4443C64.5624 22.0443 64.7624 22.3443 65.3624 22.3443C66.7624 22.3443 68.2624 22.5443 69.6624 22.1443C71.9624 21.4443 73.8624 20.0443 74.9624 17.8443C76.0624 15.7443 75.8624 13.6443 74.7624 11.5443C73.3624 8.94434 71.1624 7.64434 68.2624 7.64434C57.7624 7.64434 47.2624 7.64434 36.7624 7.64434C36.0624 7.64434 35.4624 7.74434 34.9624 8.34434C34.4624 8.94434 34.3624 9.54434 34.7624 10.2443C35.0624 10.9443 35.6624 11.3443 36.4624 11.3443C38.9624 11.3443 41.5624 11.3443 44.0624 11.3443C44.8624 11.3443 45.6624 11.3443 46.3624 11.4443C50.1624 11.9443 53.3624 15.2443 53.9624 18.9443C54.7624 23.8443 51.3624 28.4443 46.5624 29.3443C45.9624 29.4443 45.2624 29.5443 44.6624 29.5443C37.8624 29.4443 31.0624 29.4443 24.2624 29.4443Z"
    fill="#0000fe"></path>
  <path
    d="M76.1626 0.0444444C76.2626 -0.0555556 76.3626 0.0444444 76.4626 0.0444444C86.0626 0.0444444 95.6626 0.0444444 105.163 0.0444444C105.563 0.0444444 105.863 0.144444 106.163 0.244444C109.563 1.54444 112.263 3.64444 114.163 6.84444C114.263 7.04444 114.463 7.24444 114.363 7.44444C114.263 7.64444 113.963 7.54444 113.763 7.54444C109.463 7.54444 105.163 7.54444 100.963 7.54444C100.263 7.54444 100.063 7.74444 100.063 8.44444C100.063 8.64444 100.063 8.74444 100.063 8.94444C100.063 15.2444 100.063 21.5444 100.063 27.7444C100.063 29.0444 99.1626 29.6444 98.1626 29.6444C96.4626 29.6444 94.8626 29.6444 93.1626 29.6444C92.3626 29.6444 91.7626 29.2444 91.5626 28.6444C91.4626 28.3444 91.4626 28.1444 91.4626 27.8444C91.4626 21.6444 91.4626 15.5444 91.4626 9.34444C91.4626 9.04444 91.4626 8.64444 91.4626 8.34444C91.4626 7.84444 91.1626 7.54444 90.6626 7.54444C88.9626 7.54444 87.2626 7.54444 85.5626 7.54444C85.2626 7.54444 85.1626 7.44444 85.0626 7.24444C83.0626 3.84444 80.1626 1.54444 76.4626 0.244444C76.3626 0.144444 76.2626 0.144444 76.1626 0.0444444Z"
    fill="#0000fe"></path>
  <path
    d="M0 36.9678V33.9678H0.483521V36.9678C0.483521 37.8387 0.870338 38.3226 1.54727 38.3226C2.2242 38.3226 2.61101 37.8387 2.61101 36.9678V33.9678H3.09453V36.871C3.09453 38.1291 2.51431 38.7097 1.54727 38.7097C0.580225 38.8065 0 38.1291 0 36.9678Z"
    fill="#0000fe"></path>
  <path
    d="M3.86816 38.4194L6.18906 34.4516H3.96487V33.9678H6.76929V34.3549L4.44839 38.3226H6.76929V38.8065H3.86816V38.4194Z"
    fill="#0000fe"></path>
  <path
    d="M8.99327 33.9678H9.4768L11.1208 38.7097H10.6372L10.1537 37.4516H8.21964L7.83283 38.7097H7.3493L8.99327 33.9678ZM10.057 37.0645L9.18668 34.6452L8.41305 37.0645H10.057Z"
    fill="#0000fe"></path>
  <path
    d="M12.9583 36.8714L11.411 34.0649H11.8945L13.055 36.3875L14.2154 34.0649H14.699L13.2484 36.8714V38.8069H12.7649V36.8714H12.9583Z"
    fill="#0000fe"></path>
  <path
    d="M19.4373 38.129C19.1472 38.5161 18.7604 38.8065 18.1802 38.8065C17.5032 38.8065 17.0197 38.2258 17.0197 37.5484C17.0197 36.9678 17.3098 36.4839 17.9868 36.0968C17.6966 35.7097 17.5999 35.4194 17.5999 35.0323C17.5999 34.4516 17.9868 33.9678 18.6637 33.9678C19.2439 33.9678 19.6307 34.4516 19.6307 35.0323C19.6307 35.6129 19.2439 36 18.7604 36.2903L19.6307 37.4516C19.8241 37.1613 19.9208 36.7742 20.0175 36.3871L20.4044 36.5807C20.211 37.0645 20.1143 37.4516 19.9208 37.8387L20.5978 38.7097L20.211 39L19.4373 38.129ZM19.1472 37.7419L18.1802 36.3871C17.6966 36.6774 17.5032 37.0645 17.5032 37.4516C17.5032 37.9355 17.7933 38.3226 18.2769 38.3226C18.567 38.3226 18.8571 38.129 19.1472 37.7419ZM19.0505 34.9355C19.0505 34.5484 18.8571 34.2581 18.4703 34.2581C18.0835 34.2581 17.8901 34.5484 17.8901 34.9355C17.8901 35.2258 17.9868 35.4194 18.2769 35.8065C18.7604 35.7097 19.0505 35.3226 19.0505 34.9355Z"
    fill="#0000fe"></path>
  <path
    d="M22.4355 38.129L22.7256 37.742C23.1124 38.129 23.4025 38.3226 23.886 38.3226C24.3696 38.3226 24.7564 37.9355 24.7564 37.5484C24.7564 37.1613 24.563 36.871 23.7893 36.5807C22.919 36.1936 22.5322 35.9032 22.5322 35.2258C22.5322 34.5484 23.1124 33.9678 23.7893 33.9678C24.2729 33.9678 24.6597 34.1613 25.0465 34.5484L24.7564 34.9355C24.4663 34.6452 24.0795 34.4516 23.6926 34.4516C23.2091 34.4516 22.919 34.742 22.919 35.2258C22.919 35.6129 23.1124 35.9032 23.886 36.1936C24.7564 36.5807 25.0465 36.9678 25.0465 37.5484C25.0465 38.3226 24.4663 38.8065 23.6926 38.8065C23.3058 38.8065 22.8223 38.6129 22.4355 38.129Z"
    fill="#0000fe"></path>
  <path
    d="M27.3674 33.9678H27.8509L29.4949 38.7097H29.0114L28.6246 37.4516H26.6905L26.3037 38.7097H25.8201L27.3674 33.9678ZM28.4311 37.0645L27.6575 34.6452L26.8839 37.0645H28.4311Z"
    fill="#0000fe"></path>
  <path d="M29.9783 33.9678H30.4618L31.7189 38.0323L32.9761 33.9678H33.4596L31.9123 38.7097H31.5255L29.9783 33.9678Z"
        fill="#0000fe"></path>
  <path
    d="M34.1365 36.9678V33.9678H34.62V36.9678C34.62 37.8387 35.0068 38.3226 35.6837 38.3226C36.3607 38.3226 36.7475 37.8387 36.7475 36.9678V33.9678H37.231V36.871C37.231 38.1291 36.6508 38.7097 35.6837 38.7097C34.8134 38.8065 34.1365 38.1291 34.1365 36.9678Z"
    fill="#0000fe"></path>
  <path
    d="M38.2948 33.9678H38.6816L40.9058 37.742V33.9678H41.3894V38.7097H41.0025L38.6816 34.8387V38.7097H38.1981V33.9678H38.2948Z"
    fill="#0000fe"></path>
  <path
    d="M42.4532 33.9678H42.9367L44.1939 36.4839L45.451 33.9678H45.9345V38.7097H45.451V34.8387L44.0971 37.3549L42.7433 34.8387V38.7097H42.2598V33.9678H42.4532Z"
    fill="#0000fe"></path>
  <path
    d="M48.449 33.9678H48.8358L50.4798 38.7097H49.9963L49.6095 37.4516H47.6754L47.2886 38.7097H46.8051L48.449 33.9678ZM49.4161 37.0645L48.6424 34.6452L47.8688 37.0645H49.4161Z"
    fill="#0000fe"></path>
  <path d="M53.7677 34.4516H52.6073V33.9678H55.4117V34.4516H54.2513V38.7097H53.7677V34.4516V34.4516Z"
        fill="#0000fe"></path>
  <path
    d="M56.2819 33.9678H58.8929V34.4516H56.7654V36.0968H58.6995V36.5807H56.7654V38.3226H58.8929V38.8065H56.2819V33.9678Z"
    fill="#0000fe"></path>
  <path
    d="M59.7631 33.9678H60.2466V36.6774L62.2774 33.9678H62.8577L61.3104 36L62.9544 38.7097H62.3741L61.0203 36.4839L60.3433 37.4516V38.8065H59.8598V33.9678H59.7631Z"
    fill="#0000fe"></path>
  <path
    d="M63.6314 33.9678H64.0183L66.2424 37.742V33.9678H66.726V38.7097H66.3392L64.0183 34.8387V38.7097H63.5347V33.9678H63.6314Z"
    fill="#0000fe"></path>
  <path
    d="M67.5964 36.3872C67.5964 34.9356 68.3701 33.8711 69.4338 33.8711C70.4976 33.8711 71.2712 34.9356 71.2712 36.2904V36.3872C71.2712 37.7421 70.4976 38.8066 69.4338 38.8066C68.3701 38.8066 67.5964 37.7421 67.5964 36.3872ZM70.7877 36.3872C70.7877 35.2259 70.2075 34.355 69.4338 34.355C68.6602 34.355 68.08 35.1292 68.08 36.2904C68.08 37.4517 68.6602 38.2259 69.4338 38.2259C70.2075 38.3227 70.7877 37.5485 70.7877 36.3872Z"
    fill="#0000fe"></path>
  <path d="M72.2381 33.9678H72.7216V38.2258H74.6557V38.7097H72.2381V33.9678Z" fill="#0000fe"></path>
  <path
    d="M75.2358 36.3872C75.2358 34.9356 76.0094 33.8711 77.0732 33.8711C78.1369 33.8711 78.9105 34.9356 78.9105 36.2904V36.3872C78.9105 37.7421 78.1369 38.8066 77.0732 38.8066C76.0094 38.8066 75.2358 37.7421 75.2358 36.3872ZM78.427 36.3872C78.427 35.2259 77.8468 34.355 77.0732 34.355C76.2995 34.355 75.7193 35.1292 75.7193 36.2904C75.7193 37.4517 76.2995 38.2259 77.0732 38.2259C77.9435 38.3227 78.427 37.5485 78.427 36.3872Z"
    fill="#0000fe"></path>
  <path
    d="M79.4909 38.129L79.781 37.8387C79.9744 38.2258 80.1678 38.3226 80.5547 38.3226C80.9415 38.3226 81.2316 38.0323 81.2316 37.3549V33.9678H81.7151V37.3549C81.7151 37.8387 81.6184 38.2258 81.425 38.4194C81.2316 38.6129 80.9415 38.8065 80.6514 38.8065C80.0711 38.8065 79.6843 38.5161 79.4909 38.129Z"
    fill="#0000fe"></path>
  <path d="M82.7786 33H83.3588V33.5806H82.7786V33ZM82.7786 33.9677H83.2621V38.7097H82.7786V33.9677Z"
        fill="#0000fe"></path>
  <path d="M84.3261 33.9678H84.8096V38.2258H86.7437V38.7097H84.3261V33.9678Z" fill="#0000fe"></path>
  <path
    d="M87.6138 33.9678H90.2248V34.4516H88.0973V36.0968H90.0314V36.5807H88.0973V38.3226H90.2248V38.8065H87.6138V33.9678Z"
    fill="#0000fe"></path>
  <path
    d="M91.0955 33.9678H92.546C93.0295 33.9678 93.4164 34.1613 93.7065 34.4516C93.8999 34.6452 93.9966 35.0323 93.9966 35.4194C93.9966 36.1936 93.6098 36.5807 93.0295 36.7742L94.19 38.7097H93.6098L92.546 36.871H91.579V38.7097H91.0955V33.9678V33.9678ZM92.4493 36.3871C93.1262 36.3871 93.5131 36 93.5131 35.4194C93.5131 34.8387 93.1262 34.4516 92.4493 34.4516H91.4823V36.3871H92.4493Z"
    fill="#0000fe"></path>
  <path d="M94.9636 33H95.5439V33.5806H94.9636V33ZM94.9636 33.9677H95.4472V38.7097H94.9636V33.9677Z"
        fill="#0000fe"></path>
</svg>
